/vscmnt/brussel_pixiu_data/_data_brussel/112/vsc11236/PredSimResults/SUBJ10opt3D/weighted-trackIG/worker_01.mot
version=1
nRows=5
nColumns=50
inDegrees=yes
endheader
                time	         pelvis_tilt	         pelvis_list	     pelvis_rotation	           pelvis_tx	           pelvis_ty	           pelvis_tz	       hip_flexion_r	     hip_adduction_r	      hip_rotation_r	        knee_angle_r	       ankle_angle_r	         mtp_angle_r	       hip_flexion_l	     hip_adduction_l	      hip_rotation_l	        knee_angle_l	       ankle_angle_l	         mtp_angle_l	    lumbar_extension	      lumbar_bending	     lumbar_rotation	 ercspn_r/activation	 intobl_r/activation	 extobl_r/activation	    abd_r/activation	    add_r/activation	hamstrings_r/activation	bifemsh_r/activation	glut_max_r/activation	iliopsoas_r/activation	rect_fem_r/activation	  vasti_r/activation	gastroc_r/activation	 soleus_r/activation	tib_ant_r/activation	 ercspn_l/activation	 intobl_l/activation	 extobl_l/activation	    abd_l/activation	    add_l/activation	hamstrings_l/activation	bifemsh_l/activation	glut_max_l/activation	iliopsoas_l/activation	rect_fem_l/activation	  vasti_l/activation	gastroc_l/activation	 soleus_l/activation	tib_ant_l/activation	
          0.00000000	         -3.97683651	         -0.88890712	          6.96840707	          0.00000000	          0.82288710	         -0.01271962	         30.52245835	         -1.59209648	         -5.70014373	         -7.87142550	          3.07868566	          0.26543533	        -16.26847135	         -0.82481028	         -0.34464711	         -6.00996823	          8.38954759	         26.51162478	         -6.46546311	         -0.49644337	         -6.69724326	          0.10795555	          0.15713774	          0.01000001	          0.00999999	          0.18449936	          0.11165057	          0.21863708	          0.05168215	          0.09533198	          0.01000004	          0.00999999	          0.01882609	          0.01347765	          0.28806089	          0.09564834	          0.00999999	          0.01000000	          0.05444943	          0.01000002	          0.01202848	          0.21019134	          0.01242283	          0.38513807	          0.01000006	          0.01000000	          0.30671390	          0.25102538	          0.02370435	
          0.01130451	         -4.01136294	         -0.86873718	          7.06826634	          0.01550329	          0.82159525	         -0.01245678	         30.36079094	         -1.47487607	         -5.31601564	         -9.43287817	          2.72257724	          0.25243229	        -16.31608294	         -0.95383002	         -0.65080716	         -7.77887938	          7.70541256	         28.17941803	         -6.24391622	         -0.03013015	         -7.00454595	          0.09084045	          0.13222537	          0.01000000	          0.01298144	          0.15524911	          0.09707847	          0.18397471	          0.09527592	          0.08021819	          0.01000000	          0.00999999	          0.01584144	          0.01134093	          0.36158835	          0.11100629	          0.00999999	          0.01000000	          0.04581710	          0.01188405	          0.01582523	          0.17686793	          0.01045334	          0.32407887	          0.01000000	          0.00999999	          0.26736449	          0.23984469	          0.01994630	
          0.02260902	         -4.03739112	         -0.85997185	          7.12531565	          0.03121950	          0.82060257	         -0.01206745	         30.06439728	         -1.34744336	         -5.00778238	        -10.75174444	          2.24722663	          0.24246501	        -16.22070849	         -1.10484060	         -0.98465143	         -9.81734834	          6.85949481	         29.79381060	         -6.00930890	          0.44623198	         -7.28170005	          0.10611496	          0.11126257	          0.01000000	          0.06140583	          0.16751197	          0.08275094	          0.15480764	          0.11049372	          0.06750052	          0.01000000	          0.01000000	          0.01332996	          0.00999999	          0.41612443	          0.12829105	          0.00999999	          0.01000000	          0.03855333	          0.01000004	          0.01331671	          0.14882756	          0.01000001	          0.27269990	          0.01000003	          0.01000000	          0.22497693	          0.22303727	          0.01678404	
          0.03391352	         -4.05506932	         -0.84702089	          7.14086923	          0.04697054	          0.82001039	         -0.01156273	         29.72973642	         -1.22072033	         -4.80273451	        -12.01686932	          1.78591188	          0.22894751	        -15.93162109	         -1.26142824	         -1.35037730	        -12.18624591	          5.84662247	         31.25685310	         -5.78098265	          0.91474122	         -7.52441839	          0.10814919	          0.09362317	          0.01000000	          0.09853372	          0.21115944	          0.07060756	          0.13026468	          0.11652499	          0.05679909	          0.01000000	          0.01000002	          0.01121665	          0.01000000	          0.44719384	          0.15493256	          0.00999999	          0.01000000	          0.03244114	          0.01000007	          0.01573596	          0.12523267	          0.01000002	          0.22946648	          0.01000001	          0.01000000	          0.18930943	          0.20473416	          0.01412313	
          0.04521803	         -4.06427189	         -0.83253448	          7.11923784	          0.06263228	          0.81987923	         -0.01095482	         29.41427093	         -1.09457713	         -4.68169266	        -13.34082365	          1.46720270	          0.21543039	        -15.41176689	         -1.42921167	         -1.75233698	        -14.92640389	          4.69024639	         32.40964062	         -5.56805146	          1.37635572	         -7.73228205	          0.10759309	          0.07878030	          0.01000000	          0.12612265	          0.24051622	          0.06628042	          0.10961272	          0.11585219	          0.04779425	          0.01000000	          0.03731854	          0.01000000	          0.01000000	          0.45862823	          0.17668892	          0.00999999	          0.01000000	          0.02729797	          0.06161223	          0.02661284	          0.10537848	          0.01000000	          0.19308722	          0.01000000	          0.00999999	          0.15929660	          0.17638079	          0.01188407	
